<svg xmlns="http://www.w3.org/2000/svg" viewBox="0 0 1800 320" role="img" aria-labelledby="title desc">
  <title id="title">Meals</title>
  <desc id="desc">Soft glossy Meals tracker switcher</desc>
  <defs>
    <linearGradient id="bar" x1="0" y1="0" x2="1" y2="1">
      <stop offset="0" stop-color="#ffffff"/>
      <stop offset="0.55" stop-color="#f7fbff"/>
      <stop offset="1" stop-color="#edf7f8"/>
    </linearGradient>
    <radialGradient id="mint" cx="35%" cy="25%" r="80%">
      <stop offset="0" stop-color="#9cf0d7"/>
      <stop offset="0.55" stop-color="#63d4b7"/>
      <stop offset="1" stop-color="#39ae95"/>
    </radialGradient>
    <linearGradient id="whiteGloss" x1="0" y1="0" x2="0" y2="1">
      <stop offset="0" stop-color="#ffffff"/>
      <stop offset="1" stop-color="#e9f1f8"/>
    </linearGradient>
    <filter id="shadow" x="-20%" y="-30%" width="140%" height="170%">
      <feDropShadow dx="0" dy="8" stdDeviation="10" flood-color="#a8bacb" flood-opacity="0.28"/>
    </filter>
    <filter id="iconShadow" x="-40%" y="-40%" width="180%" height="180%">
      <feDropShadow dx="0" dy="9" stdDeviation="9" flood-color="#4b9c89" flood-opacity="0.28"/>
    </filter>
  </defs>
  <rect x="18" y="22" width="1764" height="276" rx="138" fill="url(#bar)" stroke="#dce8f1" stroke-width="4" filter="url(#shadow)"/>
  <rect x="31" y="35" width="1738" height="250" rx="125" fill="none" stroke="#ffffff" stroke-opacity="0.8" stroke-width="3"/>
  <g transform="translate(88 58)" filter="url(#iconShadow)">
    <circle cx="102" cy="102" r="92" fill="url(#mint)"/>
    <ellipse cx="72" cy="55" rx="35" ry="13" fill="#ffffff" opacity="0.45" transform="rotate(-25 72 55)"/>
    <g fill="url(#whiteGloss)">
      <rect x="61" y="68" width="18" height="91" rx="9"/>
      <rect x="49" y="52" width="8" height="43" rx="4"/>
      <rect x="62" y="52" width="8" height="43" rx="4"/>
      <rect x="75" y="52" width="8" height="43" rx="4"/>
      <rect x="116" y="62" width="18" height="97" rx="9"/>
      <path d="M116 63c0-20 11-33 35-42v68h-35z"/>
    </g>
    <g fill="#66d8bd">
      <rect x="175" y="4" width="14" height="42" rx="7" transform="rotate(18 182 25)"/>
      <rect x="199" y="20" width="14" height="42" rx="7" transform="rotate(45 206 41)"/>
      <rect x="210" y="51" width="14" height="42" rx="7" transform="rotate(75 217 72)"/>
    </g>
  </g>
  <text x="340" y="188" font-family="-apple-system,BlinkMacSystemFont,'Segoe UI',Arial,sans-serif" font-size="88" font-weight="700" fill="#173866">Meals</text>
</svg>